# xmcd
#
# Track frame offsets: 
#        150
#        14550
#        26625
#        38325
#        55200
#        70950
#        101175
#        120300
#        135000
#        149250
#        166800
#        181875
#        199275
#        210375
#        228900
#        242775
#        256425
#        272025
#        284550
#        296625
#        305475
#
# Disc length: 4273 seconds
#
# Revision: 1
# Processed by: cddbd v1.5.1PL2 Copyright (c) Steve Scherf et al.
# Submitted via: ExactAudioCopy v0.95b4
#
DISCID=3110af15
DTITLE=Various Artist - American Country Special Hit
DYEAR=1999
DGENRE=Country
TTITLE0=Take Me Home Country Roads
TTITLE1=Califonia Dreamin
TTITLE2=Blowin'in The Wind
TTITLE3=Jambalaya
TTITLE4=Scarborough Fair
TTITLE5=Sutter's Mill
TTITLE6=Islandsing Overme
TTITLE7=No Getting Over Me
TTITLE8=Heart Of Gold
TTITLE9=It Never Rains In Southern California
TTITLE10=Longer
TTITLE11=Stony
TTITLE12=All I Have To Do Is Dream
TTITLE13=Vincent
TTITLE14=San Francisco
TTITLE15=Cotton Fields
TTITLE16=Tie A Yrllow Ribbon Round The Ole Oak
TTITLE17=500 Mile Away From Home
TTITLE18=Jolene
TTITLE19=The House Of The Rising
TTITLE20=Ready For Times To Get Better
EXTD=
EXTT0=
EXTT1=
EXTT2=
EXTT3=
EXTT4=
EXTT5=
EXTT6=
EXTT7=
EXTT8=
EXTT9=
EXTT10=
EXTT11=
EXTT12=
EXTT13=
EXTT14=
EXTT15=
EXTT16=
EXTT17=
EXTT18=
EXTT19=
EXTT20=
PLAYORDER=
